# xmcd
#
# Track frame offsets: 
#        150
#        13457
#        34131
#        60695
#        76896
#        87600
#        100614
#        131261
#        155420
#        166554
#        182346
#        204916
#        221224
#        237703
#        248366
#        268250
#        281221
#        301297
#        326801
#
# Disc length: 4615 seconds
#
# Revision: 0
# Processed by: cddbd v1.5.2PL0 Copyright (c) Steve Scherf et al.
# Submitted via: ExactAudioCopyFreeDBPlugin 1.0
#
DISCID=08120513
DTITLE=Various Artist - Jedna pecka za druhou
DYEAR=2017
DGENRE=Country
TTITLE0=Lucie Vondráčková a Petr Kocmans Artists - Já to nejsem
TTITLE1=Robert Křesťan and Druhá Tráva  - Ještě není tma
TTITLE2=Žlutý pes  - Slyším nějaký hlasy
TTITLE3=Wabi Daněk  - Jak mlýn se točí svět
TTITLE4=Taxmeni  - Hledaný muž
TTITLE5=Ladislav Vodička  - Jedno ráno
TTITLE6=Hozna Vyčítal  - Lily, Rosemary a srdcovej kluk
TTITLE7=Robert Křesťan and Druhá Tráva  - Čím dál tíž se dejchá
TTITLE8=Taxmeni  - Dvě řádky stop
TTITLE9=Hozna Vyčítal  - Dívka jménem Flora
TTITLE10=Robert Křesťan and Druhá Tráva  - Sbohem, Angelíno
TTITLE11=Petr Spálený  - Houpací síť
TTITLE12=Hozna Vyčítal  - Song o Rakoluský Knajpě nad Řekou
TTITLE13=Waldermar Matuška  - Až se má loď zpátky vrátí
TTITLE14=Robert Křesťan and Druhá Tráva  - Každé zrnko písku
TTITLE15=Hozna Vyčítal  - Billy
TTITLE16=Waldermar Matuška  - Vítr to ví
TTITLE17=Robert Křesťan and Druhá Tráva  - Řada snů
TTITLE18=Děda Mládek Illegal Band  - Knockin' on heaven's door-Nebesk
TTITLE18=á brána
EXTD=
EXTT0=
EXTT1=
EXTT2=
EXTT3=
EXTT4=
EXTT5=
EXTT6=
EXTT7=
EXTT8=
EXTT9=
EXTT10=
EXTT11=
EXTT12=
EXTT13=
EXTT14=
EXTT15=
EXTT16=
EXTT17=
EXTT18=
PLAYORDER=
